<?xml version="1.0" encoding="UTF-8" standalone="no"?>
<!-- Created with Inkscape (http://www.inkscape.org/) -->

<svg
   width="4.4000001mm"
   height="2.3mm"
   viewBox="0 0 4.4000001 2.3"
   version="1.1"
   id="svg752"
   inkscape:version="1.2.2 (732a01da63, 2022-12-09)"
   sodipodi:docname="AMS1117.svg"
   xmlns:inkscape="http://www.inkscape.org/namespaces/inkscape"
   xmlns:sodipodi="http://sodipodi.sourceforge.net/DTD/sodipodi-0.dtd"
   xmlns="http://www.w3.org/2000/svg"
   xmlns:svg="http://www.w3.org/2000/svg">
  <sodipodi:namedview
     id="namedview754"
     pagecolor="#505050"
     bordercolor="#eeeeee"
     borderopacity="1"
     inkscape:showpageshadow="0"
     inkscape:pageopacity="0"
     inkscape:pagecheckerboard="0"
     inkscape:deskcolor="#505050"
     inkscape:document-units="mm"
     showgrid="false"
     inkscape:zoom="49.146577"
     inkscape:cx="9.2376729"
     inkscape:cy="-0.081389189"
     inkscape:window-width="2560"
     inkscape:window-height="1017"
     inkscape:window-x="1072"
     inkscape:window-y="1072"
     inkscape:window-maximized="1"
     inkscape:current-layer="g768" />
  <defs
     id="defs749" />
  <g
     inkscape:label="Layer 1"
     inkscape:groupmode="layer"
     id="layer1">
    <g
       id="g768"
       transform="matrix(0.29735458,0,0,0.361877,13.633483,0.05617195)">
      <g
         aria-label="AMS1117"
         transform="scale(1.0598435,0.94353552)"
         id="text758"
         style="font-size:2.43261px;fill:#ffffff;stroke-width:0.202717">
        <path
           d="m -41.047608,1.4897771 -0.325457,0.8825338 h 0.652101 z m -0.135409,-0.2363718 h 0.272006 l 0.675857,1.7733822 h -0.249438 l -0.16154,-0.4549266 h -0.799388 l -0.161541,0.4549266 h -0.253001 z"
           id="path935" />
        <path
           d="m -39.976214,1.2534053 h 0.357527 l 0.452551,1.2068026 0.454926,-1.2068026 h 0.357528 v 1.7733822 h -0.233997 v -1.557203 l -0.457302,1.216305 h -0.241123 l -0.457302,-1.216305 v 1.557203 h -0.232808 z"
           id="path937" />
        <path
           d="m -36.814296,1.3116074 v 0.2339962 q -0.136597,-0.065329 -0.257752,-0.097399 -0.121156,-0.032071 -0.233997,-0.032071 -0.195986,0 -0.302888,0.076019 -0.105714,0.076019 -0.105714,0.2161792 0,0.117592 0.07008,0.1781697 0.07127,0.05939 0.268442,0.096212 l 0.144912,0.029695 q 0.268442,0.051075 0.395536,0.1805453 0.128283,0.1282822 0.128283,0.3444614 0,0.2577521 -0.173419,0.3907855 -0.172231,0.1330334 -0.506002,0.1330334 -0.125906,0 -0.268442,-0.028507 -0.141348,-0.028507 -0.293386,-0.084334 v -0.247062 q 0.146099,0.081958 0.286259,0.123531 0.14016,0.041573 0.275569,0.041573 0.205489,0 0.317142,-0.08077 0.111653,-0.08077 0.111653,-0.2304328 0,-0.1306578 -0.08077,-0.2043013 -0.07958,-0.073643 -0.262503,-0.1104652 l -0.1461,-0.028507 q -0.268442,-0.053451 -0.388409,-0.1674795 -0.119968,-0.1140286 -0.119968,-0.317142 0,-0.235184 0.165104,-0.370593 0.166292,-0.1354089 0.457302,-0.1354089 0.124719,0 0.254189,0.022568 0.12947,0.022568 0.264879,0.067705 z"
           id="path939" />
        <path
           d="m -36.270285,2.8248619 h 0.391973 V 1.4719601 l -0.426419,0.085522 V 1.3389267 l 0.424044,-0.085521 h 0.239935 v 1.5714566 h 0.391973 v 0.2019256 h -1.021506 z"
           id="path941" />
        <path
           d="m -34.722584,2.8248619 h 0.391973 V 1.4719601 l -0.426419,0.085522 V 1.3389267 l 0.424044,-0.085521 h 0.239935 v 1.5714566 h 0.391973 v 0.2019256 h -1.021506 z"
           id="path943" />
        <path
           d="m -33.174884,2.8248619 h 0.391974 V 1.4719601 l -0.42642,0.085522 V 1.3389267 l 0.424044,-0.085521 h 0.239935 v 1.5714566 h 0.391973 v 0.2019256 h -1.021506 z"
           id="path945" />
        <path
           d="m -31.729334,1.2534053 h 1.140286 v 0.1021506 l -0.643786,1.6712316 h -0.250625 l 0.605777,-1.5714566 h -0.851652 z"
           id="path947" />
      </g>
      <g
         aria-label="3.3  1715"
         transform="scale(1.0598435,0.94353552)"
         id="text762"
         style="font-size:2.43261px;fill:#ffffff;stroke-width:0.202717">
        <path
           d="m -41.052868,4.186604 q 0.17223,0.036822 0.268442,0.1532259 0.0974,0.1164042 0.0974,0.2874471 0,0.2625033 -0.180545,0.4062269 -0.180545,0.1437235 -0.513129,0.1437235 -0.111653,0 -0.230432,-0.022568 -0.117592,-0.02138 -0.243499,-0.065329 V 4.8577098 q 0.09978,0.058202 0.218555,0.087897 0.11878,0.029695 0.24825,0.029695 0.225681,0 0.343273,-0.089085 0.11878,-0.089085 0.11878,-0.2589399 0,-0.1567893 -0.110465,-0.2446864 -0.109278,-0.089085 -0.305264,-0.089085 H -41.54818 V 4.0963313 h 0.216179 q 0.176982,0 0.270818,-0.07008 0.09384,-0.071268 0.09384,-0.2043013 0,-0.1365967 -0.0974,-0.2090524 -0.09621,-0.073644 -0.276757,-0.073644 -0.09859,0 -0.211428,0.02138 -0.112841,0.02138 -0.24825,0.066517 V 3.4133476 q 0.136597,-0.03801 0.255376,-0.057014 0.119968,-0.019005 0.225682,-0.019005 0.273194,0 0.432358,0.1247188 0.159165,0.123531 0.159165,0.334959 0,0.1472869 -0.08433,0.2494375 -0.08433,0.1009628 -0.239935,0.1401602 z"
           id="path999" />
        <path
           d="m -40.2321,4.8410806 h 0.250625 V 5.1427813 H -40.2321 Z"
           id="path1001" />
        <path
           d="m -38.731911,4.186604 q 0.17223,0.036822 0.268442,0.1532259 0.0974,0.1164042 0.0974,0.2874471 0,0.2625033 -0.180546,0.4062269 -0.180545,0.1437235 -0.513128,0.1437235 -0.111653,0 -0.230433,-0.022568 -0.117592,-0.02138 -0.243499,-0.065329 V 4.8577098 q 0.09978,0.058202 0.218555,0.087897 0.11878,0.029695 0.24825,0.029695 0.225681,0 0.343273,-0.089085 0.11878,-0.089085 0.11878,-0.2589399 0,-0.1567893 -0.110465,-0.2446864 -0.109277,-0.089085 -0.305264,-0.089085 h -0.206677 V 4.0963313 h 0.216179 q 0.176982,0 0.270818,-0.07008 0.09384,-0.071268 0.09384,-0.2043013 0,-0.1365967 -0.0974,-0.2090524 -0.09621,-0.073644 -0.276757,-0.073644 -0.09859,0 -0.211428,0.02138 -0.112841,0.02138 -0.24825,0.066517 V 3.4133476 q 0.136597,-0.03801 0.255377,-0.057014 0.119967,-0.019005 0.225681,-0.019005 0.273194,0 0.432359,0.1247188 0.159165,0.123531 0.159165,0.334959 0,0.1472869 -0.08433,0.2494375 -0.08433,0.1009628 -0.239935,0.1401602 z"
           id="path1003" />
        <path
           d="m -36.323057,4.9408556 h 0.391973 V 3.5879538 l -0.426419,0.085522 V 3.4549205 l 0.424044,-0.085522 h 0.239935 v 1.5714566 h 0.391973 v 0.2019257 h -1.021506 z"
           id="path1005" />
        <path
           d="m -34.877507,3.369399 h 1.140286 v 0.1021507 l -0.643787,1.6712316 h -0.250625 l 0.605777,-1.5714566 h -0.851651 z"
           id="path1007" />
        <path
           d="m -33.227656,4.9408556 h 0.391973 V 3.5879538 l -0.426419,0.085522 V 3.4549205 l 0.424043,-0.085522 h 0.239936 v 1.5714566 h 0.391973 v 0.2019257 h -1.021506 z"
           id="path1009" />
        <path
           d="m -31.719153,3.369399 h 0.941924 v 0.2019257 h -0.722181 v 0.434734 q 0.05226,-0.017817 0.104526,-0.026132 0.05226,-0.0095 0.104526,-0.0095 0.29695,0 0.470368,0.1627283 0.173419,0.1627283 0.173419,0.440673 0,0.2862593 -0.17817,0.4454242 -0.17817,0.1579771 -0.502438,0.1579771 -0.111653,0 -0.228058,-0.019005 -0.115216,-0.019005 -0.238747,-0.057014 V 4.8600854 q 0.106902,0.058202 0.22093,0.086709 0.114029,0.028507 0.241123,0.028507 0.205489,0 0.325457,-0.1080896 0.119968,-0.1080897 0.119968,-0.2933861 0,-0.1852965 -0.119968,-0.2933861 -0.119968,-0.1080896 -0.325457,-0.1080896 -0.09621,0 -0.192423,0.02138 -0.09502,0.02138 -0.194799,0.066517 z"
           id="path1011" />
      </g>
    </g>
  </g>
</svg>
